<svg xmlns="http://www.w3.org/2000/svg" viewBox="0 0 461.21 531"><defs><style>.cls-1{fill:#6fb18b;}.cls-2{fill:#333;}</style></defs><g id="Lager_3" data-name="Lager 3"><rect class="cls-1" width="461" height="531"/></g><g id="Lager_1" data-name="Lager 1"><rect class="cls-2" y="7" width="153.74" height="153.74"/><rect class="cls-2" x="120.54" y="19.03" width="218.54" height="433.14" transform="translate(-98.28 234.5) rotate(-45)"/><rect class="cls-2" x="307.47" y="7" width="153.74" height="153.74"/><rect class="cls-2" y="314.47" width="153.74" height="153.74"/><rect class="cls-2" x="307.47" y="314.47" width="153.74" height="153.74"/></g><g id="Lager_2" data-name="Lager 2"><path class="cls-2" d="M35.28,511.83l5-26.3h7.59l-8.2,37H32l-6-24.73-6,24.73H12.28l-8.21-37h7.6l5,26.25,6.09-26.25h6.45Z" transform="translate(1 3)"/><path class="cls-2" d="M74.2,506.48H59.58v9.9H76.74v6.12H52v-37H76.69v6.17H59.58v8.81H74.2Z" transform="translate(1 3)"/><path class="cls-2" d="M81.21,522.5v-37h13q6.74,0,10.21,2.58a8.8,8.8,0,0,1,3.48,7.55,8.38,8.38,0,0,1-1.4,4.79,8,8,0,0,1-3.89,3,7.86,7.86,0,0,1,4.49,2.87,8.49,8.49,0,0,1,1.63,5.28q0,5.34-3.4,8.08t-9.7,2.79ZM88.83,501h5.63q5.78-.11,5.77-4.6a4.27,4.27,0,0,0-1.46-3.62,7.74,7.74,0,0,0-4.61-1.1H88.83Zm0,5.38v10h6.52a6.34,6.34,0,0,0,4.21-1.28,4.43,4.43,0,0,0,1.51-3.54c0-3.39-1.76-5.11-5.26-5.16Z" transform="translate(1 3)"/><path class="cls-2" d="M114.4,522.5v-37h12.95q6.72,0,10.2,2.58a8.8,8.8,0,0,1,3.48,7.55,8.3,8.3,0,0,1-1.4,4.79,8,8,0,0,1-3.88,3,7.81,7.81,0,0,1,4.48,2.87,8.5,8.5,0,0,1,1.64,5.28c0,3.56-1.14,6.25-3.4,8.08s-5.5,2.75-9.7,2.79ZM122,501h5.64q5.76-.11,5.76-4.6A4.24,4.24,0,0,0,132,492.8a7.71,7.71,0,0,0-4.6-1.1H122Zm0,5.38v10h6.53a6.33,6.33,0,0,0,4.2-1.28,4.4,4.4,0,0,0,1.51-3.54q0-5.08-5.25-5.16Z" transform="translate(1 3)"/><path class="cls-2" d="M175.56,485.53v24.35q0,6.07-3.79,9.6T161.39,523q-6.46,0-10.28-3.43a12.26,12.26,0,0,1-3.88-9.42V485.53h7.61v24.4c0,2.42.58,4.19,1.74,5.29a6.68,6.68,0,0,0,4.81,1.67q6.44,0,6.53-6.76v-24.6Z" transform="translate(1 3)"/><path class="cls-2" d="M209.64,491.7H198.31v30.8H190.7V491.7H179.52v-6.17h30.12Z" transform="translate(1 3)"/><path class="cls-2" d="M228,513.33l8.38-27.8h8.48L232,522.5h-7.95l-12.82-37h8.46Z" transform="translate(1 3)"/><path class="cls-2" d="M270.62,506.48H256v9.9h17.16v6.12H248.38v-37h24.73v6.17H256v8.81h14.62Z" transform="translate(1 3)"/><path class="cls-2" d="M306.65,510.18a13.06,13.06,0,0,1-4.4,9.4q-4,3.42-10.47,3.43-7.11,0-11.19-4.79t-4.07-13.14v-2.26a22.17,22.17,0,0,1,1.87-9.39,14.2,14.2,0,0,1,5.37-6.24,15.14,15.14,0,0,1,8.12-2.17q6.39,0,10.31,3.43a14.11,14.11,0,0,1,4.52,9.62h-7.62c-.19-2.38-.85-4.11-2-5.19a7.39,7.39,0,0,0-5.21-1.61,6.47,6.47,0,0,0-5.7,2.73q-1.89,2.73-1.95,8.47v2.79q0,6,1.82,8.76a6.37,6.37,0,0,0,5.73,2.77,7.48,7.48,0,0,0,5.26-1.62,7.26,7.26,0,0,0,2-5Z" transform="translate(1 3)"/><path class="cls-2" d="M323.23,507.67l-4,4.27V522.5h-7.61v-37h7.61v16.76l3.35-4.6L332,485.53h9.37L328.29,502l13.5,20.54h-9.06Z" transform="translate(1 3)"/><path class="cls-2" d="M352.28,516.38h16.18v6.12h-23.8v-37h7.62Z" transform="translate(1 3)"/><path class="cls-2" d="M380.92,522.5H373.3v-37h7.62Z" transform="translate(1 3)"/><path class="cls-2" d="M418,522.5h-7.61L395.6,498.17V522.5H388v-37h7.62l14.85,24.38V485.53H418Z" transform="translate(1 3)"/><path class="cls-2" d="M454,517.83a13.32,13.32,0,0,1-5.82,3.82A24.46,24.46,0,0,1,439.8,523a16.43,16.43,0,0,1-8.41-2.1,13.87,13.87,0,0,1-5.59-6.08,21.38,21.38,0,0,1-2-9.37V503a22.66,22.66,0,0,1,1.87-9.59,13.78,13.78,0,0,1,5.38-6.19,15.5,15.5,0,0,1,8.24-2.15q6.57,0,10.28,3.14t4.4,9.13h-7.42a7.37,7.37,0,0,0-2.25-4.65,7.17,7.17,0,0,0-4.78-1.47,6.76,6.76,0,0,0-5.92,2.92c-1.35,1.94-2,4.84-2.05,8.68v2.36q0,5.82,2.2,8.79a7.59,7.59,0,0,0,6.48,3q4.29,0,6.12-1.83v-6.37H439.4v-5.61H454Z" transform="translate(1 3)"/></g></svg>